<svg width="20" height="20" viewBox="0 0 20 20" fill="none" xmlns="http://www.w3.org/2000/svg">
<path fill-rule="evenodd" clip-rule="evenodd" d="M17.7119 18.6209C18.408 18.6209 18.9939 18.0919 19.0752 17.3896L19.0831 15.9861L18.4124 16.2379C17.5449 16.5641 16.8846 17.1404 16.5025 17.9038L16.1422 18.6209H17.7119ZM4.51848 18.6209H15.4426L15.5467 18.2624C16.1063 16.2992 17.7696 15.5943 18.7106 15.3495L19.0822 15.2533V11.2892C19.0822 10.0518 18.0748 9.04439 16.8374 9.04439H3.1639C1.99383 9.04439 1.01091 9.96261 0.924335 11.144L0.918213 15.116L1.26364 15.2262C2.38648 15.5856 3.84425 16.4041 4.4118 18.2703L4.51848 18.6209ZM0.919088 17.2515C0.919088 17.9476 1.4499 18.5343 2.15474 18.6148L3.8084 18.6218L3.44636 17.9038C3.06159 17.1378 2.44857 16.5563 1.62218 16.1741L0.919088 15.8497V17.2515ZM10.0015 1.33315C8.2202 1.33315 6.74756 2.72971 6.64787 4.51192L6.64174 8.12793H13.3578V4.69119C13.3578 2.8399 11.8519 1.33315 10.0015 1.33315ZM16.9974 8.12793C18.6537 8.12793 20.0004 9.47464 20.0004 11.1301V17.4106C20.0004 18.5842 19.0455 19.5391 17.8719 19.5391H2.13113C0.957565 19.5391 0.00262347 18.5842 0.00262347 17.4106L0 15.8803L0.00262347 11.1301C0.00262347 9.47464 1.34934 8.12793 3.00562 8.12793H5.72615V4.2933C5.72615 2.15605 7.46551 0.416687 9.60276 0.416687H10.3985C12.5358 0.416687 14.2752 2.15605 14.2752 4.2933V8.12793H16.9974ZM3.3228 11.9438H16.6789C16.9316 11.9438 17.1371 12.1493 17.1371 12.402C17.1371 12.6547 16.9316 12.8611 16.6789 12.8611H3.3228C3.06919 12.8611 2.86456 12.6547 2.86456 12.402C2.86456 12.1493 3.06919 11.9438 3.3228 11.9438Z" fill="black"/>
</svg>
